<?xml version="1.0" encoding="UTF-8"?>
<svg width="752pt" height="752pt" version="1.1" viewBox="0 0 752 752" xmlns="http://www.w3.org/2000/svg">
 <g fill="#fff">
  <path d="m213.61 599.18c6.9766-10.207 14.086-20.32 20.91-30.625 28.434-42.898 56.816-85.84 85.148-128.81 2.3047-3.7891 6.7539-5.6992 11.086-4.7695 16.102 1.8945 32.246 3.8594 48.43 4.957 5.5469-0.023438 11.043-1.0352 16.234-2.9766 4.8906-1.7539 8.8828-5.3828 11.09-10.086 3.2148-5.8906 7.5156-6.0234 11.367-0.26953 10.27 15.414 20.496 30.855 30.68 46.32 27.152 41.16 54.305 82.324 81.457 123.5 3.5156 5.332 3.3711 8.4023-0.71875 10.703h-0.003907c-1.4141 0.66797-2.9727 0.97656-4.5352 0.90234-40.727 0.046875-81.441 0.058594-122.15 0.035157h-188.99zm110.82-100.48c1.0078-1.4219 1.6797-2.3672 2.3008-3.2852 7.9609-12.043 15.918-24.082 23.875-36.125 3.9414-5.9375 7.8125-6.0195 11.867-0.20312 9.1602 13.152 18.219 26.367 27.406 39.496h0.003906c2.1055 2.9844 3.1992 6.5664 3.1211 10.219-0.039062 11.367 0.33203 22.754-0.050781 34.098h-0.003907c-0.46484 4.5859-1.4414 9.1094-2.9062 13.48-0.75391 2.8398-2.1602 5.5-2.9414 8.332-0.95312 3.293 0.42969 6.8203 3.3672 8.5898 2.9336 1.9453 6.7695 1.832 9.5859-0.28125 2.7734-1.9766 3.8984-5.5586 2.7539-8.7695-0.75781-2.3672-2.0039-4.6172-2.5586-7.0273h0.003906c-1.4375-5.0938-2.4219-10.305-2.9375-15.57-0.47266-9.875 0.097656-19.797-0.21875-29.68-0.26172-5.9258 1.5547-11.758 5.1328-16.484 7.457-10.309 14.602-20.836 21.715-31.414 1.1016-1.4453 1.5234-3.2969 1.1641-5.0781-3.9492-6.7188-8.3555-13.172-12.785-20-7.6211 7.8867-18.098 12.375-29.062 12.453-7.8398-0.050781-15.668-0.54688-23.449-1.4883-8.9375-0.84766-17.836-2.0547-26.758-3.0742-2.1562-0.51172-4.4023 0.41016-5.582 2.2891-5.3164 8.1992-10.859 16.254-16.102 24.488-0.73438 1.3242-0.82031 2.9141-0.23047 4.3086 4.1992 6.8945 8.6797 13.578 13.312 20.73z"/>
  <path d="m331.68 143.95c2.168 0.53516 4.3281 1.0859 6.5039 1.6016 12.77 2.9297 24.004 10.48 31.539 21.203 1.8828 2.4219 3.625 4.9492 5.2109 7.5781 0.40234 1.1523 1.3086 2.0586 2.4609 2.4648 1.1523 0.40625 2.4258 0.26562 3.4609-0.38281 8.1992-3.125 16.961-4.5039 25.723-4.0469 14.945 0.96484 28.844 8.0039 38.469 19.48 2.0547 2.2578 3.9766 4.6406 5.6016 6.5508 6.0977-2.5938 12.348-4.8086 18.719-6.6289 15.102-3.4102 30.938-0.48438 43.82 8.0977 12.883 8.582 21.684 22.066 24.355 37.316 2.668 15.246-1.0273 30.922-10.227 43.371-9.1992 12.449-23.102 20.582-38.461 22.504-10.121 1.5625-20.477 0.23047-29.875-3.8398-9.3984-4.0703-17.453-10.715-23.242-19.164-0.48438-0.92578-1.3203-1.6172-2.3242-1.9102-1-0.29688-2.0781-0.17188-2.9883 0.33984-6.1562 2.3359-12.312 4.6406-18.617 6.582-1.1992 0.17578-2.2773 0.82812-2.9883 1.8086-0.71484 0.98047-1 2.207-0.80078 3.4023 0.56641 19.32-9.082 37.508-25.391 47.879-15.934 10.438-36.031 12.219-53.551 4.7422-17.52-7.4727-30.145-23.207-33.641-41.934-0.26562-1.5547-0.55469-3.1016-0.83984-4.6914-4.7969 0-9.5312 0.15234-14.258-0.023437-17.238-0.71484-33.199-9.2852-43.316-23.258-10.117-13.973-13.277-31.812-8.5742-48.41s16.746-30.129 32.691-36.723c5.6953-1.9492 10.273-6.2656 12.559-11.836 7.5234-16.887 23.199-28.723 41.5-31.336 0.73438-0.1875 1.4531-0.43359 2.1484-0.73828zm-7.4648 11.492c-9.5664-0.027344-18.887 3.043-26.562 8.7539-7.6758 5.7109-13.297 13.75-16.023 22.922-1.0664 4.7305-4.8594 8.3672-9.6289 9.2344-9.3594 2.2656-17.73 7.4961-23.867 14.914-6.1406 7.4141-9.7148 16.617-10.195 26.23-0.71094 14.871 5.9023 29.148 17.711 38.215 11.805 9.0664 27.305 11.777 41.488 7.25 6.332-1.8945 9.0391 0.20312 9.2148 6.7109 0.035156 3.0625 0.27734 6.1211 0.72656 9.1523 2.6133 14.887 12.523 27.473 26.379 33.508 13.855 6.0352 29.816 4.7227 42.5-3.5 12.684-8.2227 20.398-22.258 20.543-37.371 0-3.7383-0.60156-7.4688-0.73047-11.211v0.003906c-0.34375-1.4883 0.039062-3.0508 1.0312-4.207 0.99609-1.1602 2.4805-1.7734 4.0039-1.6562 0.89844-0.125 1.8125-0.13281 2.7227-0.17969 9.3828-0.33203 18.438-3.5508 25.922-9.2227 0.89453-0.70312 1.8359-1.3438 2.8125-1.9219 1.125-0.94141 2.6172-1.3164 4.0508-1.0195s2.6562 1.2305 3.3164 2.5391c1.4688 2.0078 2.5391 4.3008 3.9219 6.3789 10.617 15.988 25.168 23.457 44.516 20.402 12.363-1.8164 23.434-8.6406 30.613-18.871 7.1758-10.23 9.8242-22.965 7.3242-35.207-4.7344-25.984-39.426-46.934-67.543-28.938-2.2969 1.4688-4.4766 3.1367-6.8477 4.4648v0.003906c-1.2305 0.88281-2.7891 1.1836-4.2617 0.82031-1.4727-0.36719-2.7109-1.3594-3.3867-2.7148-0.69141-1.0312-1.2227-2.1797-1.8125-3.2773-4.2383-7.9844-10.785-14.508-18.789-18.715-8-4.2031-17.082-5.9023-26.062-4.8672-6.6719 0.82422-13.09 3.043-18.844 6.5117-6.043 3.5078-8.6094 2.5352-11.031-4.0508-0.19531-0.53125-0.35156-1.0781-0.55469-1.6094v0.003907c-3.1875-8.7227-9.0039-16.242-16.641-21.523-7.6406-5.2773-16.73-8.0586-26.016-7.957z"/>
  <path d="m373.72 413.72c1.2227-22.844 11.121-44.359 27.672-60.148 16.555-15.789 38.516-24.66 61.391-24.801 2.418-0.51562 4.8789 0.64844 6.0156 2.8438 0.71094 1.8359 0.58594 3.8945-0.34766 5.6289-1.7773 1.457-3.9375 2.3672-6.2227 2.6211-7.4141 0.89062-14.777 2.1953-22.051 3.9023-15.473 4.8008-29.074 14.293-38.914 27.164-9.8438 12.871-15.441 28.484-16.02 44.676-0.023438 1.5938-0.21094 3.1797-0.55469 4.7383-0.51562 2.4609-2.7773 4.1562-5.2852 3.957-2.3984 0.16406-4.5352-1.4922-4.9766-3.8555-0.36328-2.2266-0.59766-4.4727-0.70703-6.7266z"/>
  <path d="m294.42 359.31c14.895 0.80469 29.043 6.7656 40.016 16.867 10.977 10.098 18.094 23.703 20.129 38.48 0.41797 2.918 0.57812 5.8711 0.47266 8.8203 0.19531 1.5664-0.33203 3.1328-1.4297 4.2656-1.0977 1.1328-2.6484 1.707-4.2188 1.5625-1.5039 0.035156-2.9531-0.5625-3.9922-1.6484-1.0391-1.0898-1.5703-2.5625-1.4648-4.0664-0.33984-3.957-0.90234-7.8906-1.6836-11.785-2.5781-11.48-8.9219-21.766-18.016-29.227-9.0977-7.4609-20.426-11.668-32.184-11.953-3.0547 0.52344-6-1.3672-6.8008-4.3555-0.50781-1.6758-0.16797-3.4961 0.91016-4.8789 1.0781-1.3789 2.7617-2.1484 4.5117-2.0625 1.25-0.10156 2.5-0.019531 3.75-0.019531z"/>
  <path d="m461.96 364.39c0.79297-0.027343 1.5859 0.019531 2.3672 0.13672 2.875 0.10156 5.1641 2.4375 5.2109 5.3086 0.24219 2.8906-1.8984 5.4336-4.7891 5.6836-3.2148 0.64062-6.5547 0.73828-9.7266 1.5195-15.969 3.9219-25.895 16.316-27.668 34.301-0.47266 4.5977-2.1797 6.4805-5.8477 6.418-1.2695 0.16797-2.5547-0.21094-3.5312-1.0391-0.98047-0.83203-1.5586-2.0352-1.6016-3.3164-0.65625-12.598 3.8242-24.926 12.414-34.16 8.5898-9.2383 20.562-14.598 33.172-14.852z"/>
  <path d="m290.61 400.7c3.6992 0 6.6992 3 6.6992 6.6992 0 3.7031-3 6.7031-6.6992 6.7031-3.5586-0.15625-6.4141-2.9922-6.5977-6.5469-0.035156-3.6992 2.8984-6.75 6.5977-6.8555z"/>
  <path d="m519.65 314.71c0.0625 1.7266-0.58203 3.4062-1.7852 4.6445-1.2031 1.2422-2.8594 1.9375-4.5898 1.9219-1.7773 0.035156-3.4961-0.65234-4.7656-1.8984-1.2695-1.2461-1.9844-2.9492-1.9844-4.7305 0.007812-1.7773 0.73828-3.4766 2.0234-4.7031 1.2891-1.2266 3.0156-1.8789 4.793-1.8047 1.7344-0.046875 3.4062 0.64062 4.6055 1.8906 1.2031 1.25 1.8203 2.9492 1.7031 4.6797z"/>
  <path d="m263.52 364.88c0.125 1.7227-0.49609 3.4141-1.7031 4.6484-1.207 1.2344-2.8867 1.8945-4.6133 1.8047-1.7773 0.14844-3.5352-0.47266-4.8203-1.7031-1.2891-1.2344-1.9883-2.9648-1.9141-4.7461-0.027344-1.7812 0.67578-3.4961 1.9414-4.75 1.2695-1.25 2.9922-1.9297 4.7734-1.8789 1.7227 0.027344 3.3633 0.74219 4.5547 1.9883 1.1875 1.2461 1.832 2.9141 1.7812 4.6367z"/>
  <path d="m225.64 400.73c-0.085937-1.7305 0.57031-3.418 1.8047-4.6367 1.2344-1.2148 2.9297-1.8516 4.6602-1.7422 1.7852-0.097656 3.5273 0.57031 4.793 1.8359 1.2656 1.2656 1.9336 3.0078 1.8359 4.793 0.003906 1.7891-0.73438 3.4961-2.043 4.7148-1.3047 1.2188-3.0625 1.8359-4.8438 1.707-1.7305 0.007812-3.3828-0.71094-4.5625-1.9766-1.1797-1.2695-1.7734-2.9688-1.6445-4.6953z"/>
  <path d="m483.57 354.25c-1.7227 0.11719-3.4141-0.49219-4.6641-1.6836-1.2539-1.1875-1.9453-2.8477-1.9141-4.5742-0.074219-1.7266 0.53906-3.4141 1.7109-4.6875 1.168-1.2773 2.7969-2.0352 4.5273-2.1094 3.5977-0.15234 6.6406 2.6406 6.793 6.2383 0.11719 1.7773-0.51172 3.5234-1.7383 4.8203-1.2227 1.293-2.9336 2.0156-4.7148 1.9961z"/>
  <path d="m470.32 400.94c-0.050781 3.6016-3.0117 6.4844-6.6133 6.4375-3.6055-0.046875-6.4883-3.0078-6.4375-6.6133 0.046875-3.6055 3.0078-6.4883 6.6133-6.4375 3.6016 0.046875 6.4844 3.0078 6.4375 6.6133z"/>
 </g>
</svg>
