<?xml version="1.0" encoding="UTF-8"?>
<svg width="752pt" height="752pt" version="1.1" viewBox="0 0 752 752" xmlns="http://www.w3.org/2000/svg">
 <g fill="#fff">
  <path d="m567.29 476.08c-1.3477 2.1836-3.7344 3.5156-6.3008 3.5156h-22.199v37h-14.797v-37h-22.199c-2.5703 0.011719-4.9648-1.3086-6.3242-3.4922-1.3594-2.1836-1.4844-4.9141-0.33594-7.2148l7.7383-15.48-21.312-12.816-20.336-33.891-56.191 14.059-35.605-14.246-65.871 43.941-16.355-3.2695v10.211h-14.797v-13.172l-7.3984-1.4805-36.871 7.3984-42.852-7.1406-16.477 10.953v84.836h207.19v-22.195h-22.199c-2.5625 0-4.9453-1.3281-6.2969-3.5078-1.3477-2.1836-1.4727-4.9062-0.32422-7.2031l9.4492-18.891h-2.8281c-2.7266 0-5.2344-1.5-6.5234-3.9062-1.2891-2.4102-1.1484-5.3281 0.36719-7.5977l29.598-44.398h0.003906c1.4492-1.9414 3.7305-3.0859 6.1562-3.0859 2.4219 0 4.7031 1.1445 6.1562 3.0859l29.598 44.398c1.5156 2.2695 1.6562 5.1875 0.37109 7.5977-1.2891 2.4062-3.7969 3.9062-6.5273 3.9062h-2.8281l9.4883 18.891c1.1484 2.3008 1.0234 5.0352-0.33594 7.2188-1.3594 2.1836-3.7539 3.5039-6.3242 3.4922h-22.199v22.199l192.39-0.003906v-60.676l-15.297-3.3945h0.003907c-0.15625 0.47266-0.35938 0.92578-0.60547 1.3594zm-265.29 18.316h-29.598v-14.801h29.598zm125.8-51.797h29.598v14.801l-29.598-0.003906zm59.199 66.598-37-0.003907v-14.797h37z"/>
  <path d="m399.18 472.2-15.773-23.66-15.777 23.66z"/>
  <path d="m294.61 242.81h-38.152l-4.6758 27.422 58.59-13.016 29.496 14.746 59.426-14.852 51.508 29.43 23.375-7.793-35.238-29.363-46.617-15.539-14.887-44.742-44.133-18.914-33.461 33.453-4.8672 4.0938v-0.003906c4.7617 5.6641 7.2695 12.883 7.0352 20.277v7.3984c0 1.9648-0.77734 3.8438-2.168 5.2344-1.3867 1.3867-3.2695 2.168-5.2305 2.168z"/>
  <path d="m297.43 405.6-7.3984-14.801h-20.453l-7.3984 14.801z"/>
  <path d="m272.41 213.21h-7.3984c-3.2383 0.003907-6.0977-2.0938-7.0703-5.1797-2.7422-8.8789-8.2695-17.02-29.93-17.02-11.965 0-26.957 4.3125-29.793 16.488-0.78125 3.3477-3.7695 5.7148-7.207 5.7109h-7.3984c-3.9805-0.18359-7.8516 1.3164-10.668 4.1328s-4.3164 6.6875-4.1328 10.668h118.39c0.50391-4.0586-0.89062-8.1211-3.7852-11.016-2.8906-2.8906-6.9531-4.2891-11.012-3.7852z"/>
  <path d="m168.81 553.59h414.38v29.598h-414.38z"/>
  <path d="m401.03 501.8-7.3984-14.801h-20.453l-7.4023 14.801z"/>
  <path d="m547.17 435.2-15.777-23.656-15.777 23.656z"/>
  <path d="m519.11 329.91-32.957-39.559-36.957 12.32-52.086-29.77-58.969 14.746-29.703-14.852-60.219 13.387-14.117 35.297-30.566 22.938-34.73 41.66v50.09l13.129-8.7539 45.945 7.6602 37.125-7.3984 7.3984 1.4805v-8.7578h-22.199c-2.5664 0.003906-4.9492-1.3242-6.2969-3.5078-1.3477-2.1797-1.4727-4.9023-0.32812-7.1992l9.4492-18.891h-2.8242c-2.7305 0-5.2383-1.5-6.5273-3.9102-1.2852-2.4062-1.1445-5.3242 0.37109-7.5977l29.598-44.398c1.4531-1.9375 3.7344-3.082 6.1562-3.082 2.4258 0 4.707 1.1445 6.1562 3.082l29.598 44.398h0.003906c1.5117 2.2734 1.6562 5.1914 0.36719 7.5977-1.2891 2.4102-3.7969 3.9102-6.5273 3.9102h-2.8281l9.4883 18.891c1.1523 2.3008 1.0234 5.0352-0.33594 7.2148-1.3555 2.1836-3.75 3.5078-6.3242 3.4922h-22.199v11.691l13.246 2.6484 67.285-44.855 38.391 15.355 62.203-15.539 24.062 40.105 6.4531 3.8789 26.395-39.59c1.4531-1.9414 3.7344-3.082 6.1562-3.082 2.4258 0 4.707 1.1406 6.1562 3.082l29.598 44.398h0.003906c1.5117 2.2695 1.6562 5.1914 0.36719 7.5977-1.2891 2.4062-3.7969 3.9102-6.5273 3.9102h-2.8281l4.1719 8.3398 20.855 4.6289v-76.957l-27.148-33.934zm-248.07-21.57-6.2617 25.055-14.355-3.582 8.5391-34.141 41.559-8.3203 2.9023 14.504zm225.52 43.297-19.402-19.395-33.082 6.6133c-2.0742 0.42188-4.2266-0.0625-5.918-1.332l-29.598-22.199 8.8789-11.84 26.949 20.215 33.727-6.7461c2.418-0.46875 4.9102 0.28516 6.6602 2.0195l22.199 22.199zm22.199 22.199-14.801-14.801 10.465-10.465 14.801 14.801z"/>
  <path d="m295.58 376-15.777-23.656-15.777 23.656z"/>
  <path d="m549.02 464.8-7.3984-14.797h-20.453l-7.3984 14.797z"/>
  <path d="m568.39 191.01h-7.4023c-3.2344 0.003907-6.0938-2.0938-7.0664-5.1797-2.7422-8.8789-8.2695-17.02-29.93-17.02-11.965 0-26.957 4.3125-29.793 16.488-0.78125 3.3477-3.7695 5.7148-7.207 5.7109h-7.3984c-3.9805-0.18359-7.8516 1.3164-10.668 4.1328-2.8164 2.8164-4.3164 6.6875-4.1328 10.668h118.39c0.50391-4.0586-0.89062-8.1211-3.7852-11.016-2.8906-2.8906-6.9531-4.2891-11.012-3.7852z"/>
 </g>
</svg>
