<?xml version="1.0" encoding="UTF-8"?>
<svg width="752pt" height="752pt" version="1.1" viewBox="0 0 752 752" xmlns="http://www.w3.org/2000/svg">
 <g fill="#fff">
  <path d="m242.17 392.54c27.516 0 49.906-22.391 49.906-49.906 0-27.52-22.391-49.906-49.906-49.906-27.52 0-49.906 22.391-49.906 49.906 0 27.52 22.387 49.906 49.906 49.906z"/>
  <path d="m321.45 541.03v-92.121c0-22.73-13.809-42.289-33.473-50.758-12.457 10.297-28.418 16.488-45.805 16.488s-33.348-6.1953-45.805-16.488c-19.664 8.4648-33.473 28.023-33.473 50.758v92.121z"/>
  <path d="m459.93 342.64c0 27.516 22.391 49.906 49.906 49.906 27.52 0 49.906-22.391 49.906-49.906 0-27.52-22.391-49.906-49.906-49.906-27.516 0-49.906 22.387-49.906 49.906z"/>
  <path d="m509.84 414.64c-17.387 0-33.348-6.1953-45.805-16.488-19.664 8.4688-33.473 28.023-33.473 50.758v92.121h158.55v-92.121c0-22.73-13.809-42.289-33.473-50.758-12.457 10.293-28.422 16.488-45.805 16.488z"/>
  <path d="m320 309.54c0 30.883 25.125 56 56 56 30.879 0 56-25.125 56-56 0.003906-30.875-25.117-56.004-56-56.004-30.879 0-56 25.121-56 56.004z"/>
  <path d="m448.51 381.2c-5.7695-5.8906-12.852-10.457-20.762-13.312-13.797 12.246-31.887 19.758-51.742 19.758-19.855 0-37.949-7.5117-51.742-19.758-7.9102 2.8516-14.992 7.4219-20.762 13.312 23.848 13.188 40.047 38.586 40.047 67.711v92.121h64.918l-0.003906-92.117c0-29.133 16.195-54.527 40.047-67.715z"/>
  <path d="m453.2 298.32c12.742-16.254 32.289-26.875 54.332-27.578 0.64453-3.1914 0.98828-6.4922 0.98828-9.875 0-27.516-22.391-49.906-49.906-49.906-20.363 0-37.891 12.273-45.641 29.801 21.316 11.516 36.625 32.668 40.227 57.559z"/>
  <path d="m298.8 298.32c3.5508-24.535 18.484-45.422 39.324-57.035-8.1445-16.52-25.113-27.938-44.738-27.938-27.52 0-49.906 22.391-49.906 49.906 0 2.543 0.25 5.0234 0.62109 7.4688 22.191 0.59766 41.879 11.254 54.699 27.598z"/>
 </g>
</svg>
