<?xml version="1.0" encoding="UTF-8"?>
<svg width="752pt" height="752pt" version="1.1" viewBox="0 0 752 752" xmlns="http://www.w3.org/2000/svg">
 <g fill="#fff">
  <path d="m566.86 540.34-134.97-188.01c-4.2617-5.6836-10.891-9.4727-17.996-9.4727h-29.363l20.363 48.777c1.8945 5.2109 0.47266 10.891-4.2617 14.207l-28.887 19.418 17.051 35.047c2.8398 5.6836 0 12.785-5.2109 15.629-1.8945 0.94531-3.3164 0.94531-5.2109 0.94531-4.2617 0-8.5234-2.3672-10.418-6.6289l-21.785-44.043c-2.3672-5.2109-0.47266-11.367 3.7891-14.68l29.363-19.891-19.891-48.781h-21.312c-7.1055 0-13.734 3.3164-17.996 8.9961l-135.44 188.49c-8.5234 11.84-3.3164 28.887 10.418 34.098 30.781 11.367 89.508 26.52 180.91 26.52 91.402 0 150.12-15.629 180.91-26.52 13.738-5.2109 18.945-22.262 9.9492-34.098z"/>
  <path d="m325.8 248.13c-0.47266 1.8945-0.94531 3.3164-0.94531 5.6836 0 16.102 12.785 28.887 28.887 28.887 3.7891 0 7.5781-0.94531 10.891-2.3672l5.2109 35.047c0.94531 7.5781 11.84 7.5781 12.785 0l5.2109-35.047c3.3164 1.4219 7.1055 2.3672 10.891 2.3672 16.102 0 28.887-12.785 28.887-28.887 0-1.8945-0.94531-3.7891-0.94531-5.6836 12.312-6.6289 20.836-18.941 20.836-34.098 0-19.418-14.68-35.52-33.152-37.887-6.1562-14.68-20.363-25.102-37.414-25.102-17.051 0-31.258 10.418-37.414 25.102-18.941 2.3672-33.152 18.469-33.152 37.887-1.4102 15.156 7.1133 27.469 19.426 34.098z"/>
 </g>
</svg>
